<svg width="48" height="45" viewBox="0 0 48 45" fill="none" xmlns="http://www.w3.org/2000/svg">
<path d="M42.3903 11.7916C42.4199 12.2707 42.4199 12.7499 42.4199 13.229C42.4199 27.8415 32.8003 44.6786 15.2183 44.6786C9.80163 44.6786 4.76981 42.8647 0.537109 39.7165C1.30672 39.8191 2.04662 39.8533 2.84584 39.8533C7.31524 39.8533 11.4296 38.1081 14.7151 35.1308C10.512 35.0281 6.9897 31.8455 5.77612 27.4651C6.36815 27.5677 6.96009 27.6362 7.58174 27.6362C8.44008 27.6362 9.29852 27.4993 10.0976 27.2598C5.71699 26.2331 2.43138 21.7843 2.43138 16.4116V16.2747C3.70409 17.096 5.18418 17.6094 6.75282 17.6777C4.17768 15.6928 2.4906 12.3049 2.4906 8.4721C2.4906 6.41885 2.9641 4.53666 3.79293 2.89402C8.49921 9.60144 15.5735 13.9817 23.5059 14.4609C23.358 13.6396 23.2692 12.7841 23.2692 11.9286C23.2692 5.83707 27.5315 0.875 32.8297 0.875C35.5824 0.875 38.0687 2.20964 39.8151 4.3656C41.9758 3.88652 44.0477 2.96249 45.8829 1.69632C45.1725 4.263 43.6629 6.41896 41.6798 7.78772C43.6038 7.54829 45.4686 6.93216 47.1853 6.07671C45.8831 8.2668 44.2551 10.2174 42.3903 11.7916Z" fill="#1DA1F2"/>
</svg>
